<svg xmlns="http://www.w3.org/2000/svg" viewBox="0 0 332.06 486.37"><defs><style>.cls-1{fill:none;stroke:#000;stroke-miterlimit:10;stroke-width:15px;}</style></defs><title>Asset 4</title><g id="Layer_2" data-name="Layer 2"><g id="logo"><path class="cls-1" d="M303.23,40.87A33.38,33.38,0,1,1,269.85,7.5,33.37,33.37,0,0,1,303.23,40.87Z"/><path class="cls-1" d="M7.5,331.23V97.6H230.7s77.18,14.6,77.18,76.14-1.11,76.14-47.49,99.08L82.9,364.61v50.06H197.33s45.89-4.18,43.8-45.89c0,0,.65-38.31-35.46-39.63H150.13"/><path class="cls-1" d="M234.09,207.12l-.27-7.31c-1.09-30.39-37.54-37.54-37.54-37.54H82.9V266.86h35.72"/><path class="cls-1" d="M260.39,272.82S336.3,279.35,323,379.48s-120.47,99.39-120.47,99.39H7.5V331.23"/><polyline class="cls-1" points="234.09 98.37 234.09 207.12 7.5 324.35"/></g></g></svg>