<svg xmlns="http://www.w3.org/2000/svg" viewBox="0 0 20.32 72.54"><defs><style>.cls-1{fill:none;stroke:#f16723;}</style></defs><title>bolt</title><g id="Layer_2" data-name="Layer 2"><g id="back"><g id="bolt"><path class="cls-1" d="M15,14.13V69.25c0,2.28-3.2,2.79-4.83,2.79s-4.83-.51-4.83-2.79V14.14"/><path class="cls-1" d="M17,2.2C13.9.41,11,.23,7.63.76,5.05,1.17.5,2.66.5,6.15V9.3c0,2.61,2.87,4.18,4.85,4.84a14.31,14.31,0,0,0,9.64,0c2-.66,4.83-2.23,4.83-4.83V6.15C19.82,4,18.63,3.15,17,2.2Z"/><path class="cls-1" d="M.5,6.15c0,2.17,2.07,3.65,3.72,4.4a14,14,0,0,0,5.94,1.17,13.93,13.93,0,0,0,5.93-1.17c1.66-.75,3.73-2.23,3.73-4.4"/></g></g></g></svg>