<svg xmlns="http://www.w3.org/2000/svg" viewBox="0 0 234.5 399.85"><defs><style>.cls-1,.cls-2,.cls-3{fill:none;}.cls-1{stroke:#f16723;}.cls-2,.cls-3{stroke:#333;stroke-linecap:round;stroke-width:0.5px;}.cls-3{stroke-dasharray:2.5 2.5;}</style></defs><title>Asset 2</title><g id="Layer_2" data-name="Layer 2"><g id="front"><g id="main_graphic" data-name="main graphic"><g id="orange_part" data-name="orange part"><line class="cls-1" x1="78.19" y1="220.64" x2="78.19" y2="220.11"/><line class="cls-1" x1="136.33" y1="286.26" x2="136.33" y2="283.4"/><line class="cls-1" x1="98.85" y1="178.24" x2="98.86" y2="178.48"/><line class="cls-1" x1="102.31" y1="180.24" x2="102.31" y2="189.62"/><line class="cls-1" x1="92.25" y1="210.59" x2="93.93" y2="211.55"/><line class="cls-1" x1="101.62" y1="245.99" x2="101.62" y2="242.7"/><line class="cls-1" x1="90.18" y1="263.46" x2="91.36" y2="261.32"/><line class="cls-1" x1="90.69" y1="172.3" x2="91.55" y2="172.46"/><path class="cls-1" d="M120.59,207.21A29.52,29.52,0,0,1,132.93,211a113.92,113.92,0,0,1,12.15,7.62"/><line class="cls-1" x1="135.44" y1="306.51" x2="135.44" y2="289.6"/><line class="cls-1" x1="67.56" y1="226.78" x2="98.38" y2="244.57"/><line class="cls-1" x1="135.44" y1="289.6" x2="189.61" y2="258.32"/><line class="cls-1" x1="91.55" y1="264.26" x2="135.44" y2="289.6"/><line class="cls-1" x1="138.48" y1="284.65" x2="138.48" y2="267.73"/><path class="cls-1" d="M150.93,231.45q.56-1.07,1-2.19"/><line class="cls-1" x1="147.41" y1="232.96" x2="147.41" y2="232.97"/><path class="cls-1" d="M138.06,241.18l11.73-6.77c8.77-4.69,17.57.41,17.94.63"/><path class="cls-1" d="M87.09,235.24l14.76-8.52a31,31,0,0,1,11.37-1.78"/><path class="cls-1" d="M170.85,249a16.26,16.26,0,0,0,4.51-5.06,6.63,6.63,0,0,0,.76-3"/><path class="cls-1" d="M189.61,258.32c.67-.38,7.71-4.55,12-10.88a17.12,17.12,0,0,0,3.29-9.58"/><path class="cls-1" d="M73.26,178.48c0,2.15,1.42,4.3,4.25,5.93,5.67,3.27,14.89,3.27,20.55,0"/><path class="cls-1" d="M162.89,231a42.48,42.48,0,0,1,4.74,0,46.1,46.1,0,0,1,25.08,9.71,28.07,28.07,0,0,1,5.89,5.77"/><line class="cls-1" x1="167.76" y1="235.06" x2="167.8" y2="235.08"/><line class="cls-1" x1="167.72" y1="235.03" x2="167.76" y2="235.06"/><line class="cls-1" x1="170.8" y1="249.07" x2="170.85" y2="249.03"/><line class="cls-1" x1="98.38" y1="251.87" x2="98.38" y2="244.57"/><polygon class="cls-1" points="49.09 236.92 92.25 212 92.25 195.08 89.81 193.67 29.55 228.46 29.55 245.38 90.18 280.38 91.36 278.24 91.36 261.32 49.09 236.92"/><path class="cls-1" d="M98.86,178.48c0,1.64-1.08,3.28-3.24,4.52A17.34,17.34,0,0,1,80,183c-2.16-1.25-3.24-2.88-3.24-4.52S77.79,175.2,80,174a16.22,16.22,0,0,1,8.25-1.87"/><path class="cls-1" d="M85,170.24a18.93,18.93,0,0,0-7.51,2.3c-2.83,1.64-4.25,3.78-4.25,5.93v16.92c0,2,1.26,4.05,3.78,5.65"/><polyline class="cls-1" points="98.38 244.57 101.61 242.7 103.89 238.57"/><path class="cls-1" d="M103.89,241.86v-3.29l-5.52,3.19-25.93-15,29.41-17c1-.35,7.1-2.45,13.09-1.62"/><path class="cls-1" d="M114.94,221.81V208.18L111.18,206a35.42,35.42,0,0,0-11.38,2.18l-.14.05-32.1,18.53V243.7l26.8,15.47"/><path class="cls-1" d="M91,193l30.19,17.43L91.55,264.26v16.92l43.89,25.34,54.17-31.27c.67-.39,7.71-4.55,12-10.88a17.12,17.12,0,0,0,3.29-9.58V237.86c0-4.66-2.42-9.88-9.5-15.28A53.39,53.39,0,0,0,183,215.5l-1.77-.67a48.65,48.65,0,0,0-28-1.41l-.42.9-.9,1.71q0,7.57,0,15.13"/><path class="cls-1" d="M152.84,214.32v-6.07c0-4.32-3.69-7.41-11.64-12.21"/><path class="cls-1" d="M138.76,197.46c7.34,4.42,10.59,7.15,10.59,10.9,0,2.08-1,4.47-2.85,7.64l-23.57,42.76v16.92l15.55,9L170.8,266l0,0a16.29,16.29,0,0,0,4.51-5.06,6.16,6.16,0,0,0,.76-3V240.95c0-2.3-1.39-4.93-6-7.32a25.52,25.52,0,0,0-7.27-2.65,22.94,22.94,0,0,0-10.95.19l-1,.3a20.88,20.88,0,0,0-3.52,1.5L140.34,237l-2.28,4.14V258.1l11.73-6.77a18.08,18.08,0,0,1,14-1"/><path class="cls-1" d="M167.8,235.08c3.66,1.91,4.87,4,4.87,5.92,0,3.45-3.9,6.35-4.42,6.73l-29.76,17.18-11.62-6.71,22.92-41.59c2-3.43,3.05-6.07,3.05-8.36"/><polyline class="cls-1" points="122.94 258.75 138.48 267.73 170.81 249.07"/><line class="cls-1" x1="138.06" y1="254.8" x2="133.94" y2="262.28"/><path class="cls-1" d="M151.94,216a41.39,41.39,0,0,1,15.69-1.95,46.15,46.15,0,0,1,25.08,9.71c5.89,4.44,8.84,9.14,8.84,14a15.46,15.46,0,0,1-2.95,8.65l-.11.17c-4.15,6.15-11.27,10.24-11.35,10.28l-51.7,29.85-40-23.07,29.67-53.86"/><path class="cls-1" d="M102.56,267.78l22.59-41V209.84L96.5,193.31a82,82,0,0,1,11.11-2.55,53.72,53.72,0,0,1,12-.55"/><path class="cls-1" d="M115.94,188.1a68.19,68.19,0,0,0-13.62,1.52,72,72,0,0,0-10.74,3.06l-.13.05L91,193v1.41"/><polyline class="cls-1" points="49.09 236.92 34.44 228.46 92.25 195.08"/><polyline class="cls-1" points="29.55 228.46 90.18 263.46 90.18 280.38"/><path class="cls-1" d="M98.06,184.41a8.33,8.33,0,0,0,4-4.33"/><line class="cls-1" x1="91.55" y1="277.52" x2="91.36" y2="277.49"/></g><g id="black_part" data-name="black part"><line class="cls-2" x1="95.43" y1="12.53" x2="95.43" y2="2.67"/><path class="cls-2" d="M133.72,116.18a.76.76,0,0,0,.51.7,2.69,2.69,0,0,0,2.44,0,.76.76,0,0,0,.51-.7"/><path class="cls-2" d="M134.58,117.61a2.69,2.69,0,0,0,1.72,0,1.07,1.07,0,0,0,.86-.86v-.56a.76.76,0,0,0-.51-.7,2.69,2.69,0,0,0-2.44,0,.76.76,0,0,0-.51.7v.56A1.08,1.08,0,0,0,134.58,117.61Z"/><line class="cls-2" x1="31.13" y1="67.74" x2="31.13" y2="57.88"/><line class="cls-2" x1="32.86" y1="57.89" x2="32.86" y2="67.74"/><path class="cls-2" d="M31.13,67.74a.38.38,0,0,0,.25.35,1.2,1.2,0,0,0,1.22,0,.38.38,0,0,0,.25-.35"/><path class="cls-2" d="M31.14,57.89a2.69,2.69,0,0,0,1.72,0,1.07,1.07,0,0,0,.86-.86v-.56a.76.76,0,0,0-.51-.7,2.69,2.69,0,0,0-2.44,0,.76.76,0,0,0-.51.7V57A1.08,1.08,0,0,0,31.14,57.89Z"/><path class="cls-2" d="M30.27,56.46a.76.76,0,0,0,.51.7,2.69,2.69,0,0,0,2.44,0,.76.76,0,0,0,.51-.7"/><path class="cls-2" d="M76.46,11.7a.76.76,0,0,0,.51.7,2.7,2.7,0,0,0,2.44,0,.76.76,0,0,0,.5-.7"/><path class="cls-2" d="M77.33,13.13a2.69,2.69,0,0,0,1.72,0,1.07,1.07,0,0,0,.86-.86V11.7a.76.76,0,0,0-.5-.7A2.7,2.7,0,0,0,77,11a.76.76,0,0,0-.51.7v.56A1.08,1.08,0,0,0,77.33,13.13Z"/><path class="cls-2" d="M134.58,127.46a.38.38,0,0,0,.25.35,1.2,1.2,0,0,0,1.22,0,.38.38,0,0,0,.25-.35"/><line class="cls-2" x1="136.3" y1="117.61" x2="136.3" y2="127.46"/><line class="cls-2" x1="134.58" y1="127.46" x2="134.58" y2="117.6"/><line class="cls-2" x1="191.63" y1="61.31" x2="191.63" y2="51.46"/><line class="cls-2" x1="193.35" y1="51.46" x2="193.35" y2="61.31"/><path class="cls-2" d="M191.63,61.31a.38.38,0,0,0,.25.35,1.2,1.2,0,0,0,1.22,0,.38.38,0,0,0,.25-.35"/><path class="cls-2" d="M191.63,51.46a2.69,2.69,0,0,0,1.72,0,1.07,1.07,0,0,0,.86-.86V50a.76.76,0,0,0-.51-.7,2.69,2.69,0,0,0-2.44,0,.76.76,0,0,0-.51.7v.56A1.07,1.07,0,0,0,191.63,51.46Z"/><path class="cls-2" d="M190.76,50a.76.76,0,0,0,.51.7,2.69,2.69,0,0,0,2.44,0,.76.76,0,0,0,.51-.7"/><path class="cls-2" d="M95.43,12.53a.38.38,0,0,0,.25.35,1.21,1.21,0,0,0,1.22,0,.38.38,0,0,0,.25-.35"/><path class="cls-2" d="M95.44,2.68a2.69,2.69,0,0,0,1.72,0A1.07,1.07,0,0,0,98,1.81V1.25a.76.76,0,0,0-.51-.71,2.7,2.7,0,0,0-2.44,0,.76.76,0,0,0-.51.71v.56A1.08,1.08,0,0,0,95.44,2.68Z"/><path class="cls-2" d="M94.57,1.25a.76.76,0,0,0,.51.7,2.7,2.7,0,0,0,2.44,0,.76.76,0,0,0,.51-.7"/><line class="cls-2" x1="77.32" y1="22.98" x2="77.32" y2="13.12"/><line class="cls-2" x1="79.05" y1="13.13" x2="79.05" y2="22.98"/><path class="cls-2" d="M77.32,23a.38.38,0,0,0,.25.35,1.2,1.2,0,0,0,1.22,0A.38.38,0,0,0,79,23"/><line class="cls-2" x1="135.46" y1="33.87" x2="135.46" y2="24.01"/><line class="cls-2" x1="137.19" y1="24.02" x2="137.19" y2="33.87"/><path class="cls-2" d="M135.46,33.87a.38.38,0,0,0,.25.35,1.21,1.21,0,0,0,1.22,0,.38.38,0,0,0,.25-.35"/><path class="cls-2" d="M135.47,24a2.69,2.69,0,0,0,1.72,0,1.07,1.07,0,0,0,.86-.86v-.56a.76.76,0,0,0-.51-.71,2.7,2.7,0,0,0-2.44,0,.77.77,0,0,0-.51.71v.56A1.08,1.08,0,0,0,135.47,24Z"/><path class="cls-2" d="M134.6,22.59a.76.76,0,0,0,.51.7,2.7,2.7,0,0,0,2.44,0,.76.76,0,0,0,.51-.7"/><line class="cls-2" x1="97.16" y1="2.67" x2="97.16" y2="12.53"/><line class="cls-3" x1="32" y1="135.41" x2="32" y2="68.24"/><line class="cls-3" x1="135.44" y1="395.33" x2="135.44" y2="306.5"/><line class="cls-3" x1="192.49" y1="329.19" x2="192.49" y2="307.41"/><line class="cls-3" x1="78.19" y1="290.85" x2="78.19" y2="273.46"/><line class="cls-3" x1="32" y1="228.46" x2="32" y2="139.64"/><line class="cls-3" x1="32" y1="335.61" x2="32" y2="280.62"/><line class="cls-3" x1="136.33" y1="170.61" x2="136.33" y2="150.8"/><line class="cls-3" x1="78.19" y1="253.72" x2="78.19" y2="249.83"/><line class="cls-3" x1="78.19" y1="183.7" x2="78.19" y2="166.31"/><line class="cls-3" x1="96.3" y1="240.55" x2="96.3" y2="229.92"/><line class="cls-3" x1="192.49" y1="287.67" x2="192.49" y2="273.36"/><line class="cls-3" x1="96.3" y1="162.59" x2="96.3" y2="162.12"/><line class="cls-3" x1="96.3" y1="147.5" x2="96.3" y2="122.77"/><line class="cls-3" x1="78.19" y1="137.04" x2="78.19" y2="133.23"/><line class="cls-3" x1="78.19" y1="107.33" x2="78.19" y2="94.54"/><line class="cls-3" x1="192.49" y1="253.1" x2="192.49" y2="240.56"/><line class="cls-3" x1="136.33" y1="286.26" x2="136.33" y2="283.4"/><line class="cls-3" x1="136.33" y1="263.66" x2="136.33" y2="257.95"/><line class="cls-3" x1="136.33" y1="234.46" x2="136.33" y2="212.93"/><line class="cls-3" x1="32" y1="260.89" x2="32" y2="246.78"/><line class="cls-3" x1="192.49" y1="222.04" x2="192.49" y2="166.21"/><line class="cls-3" x1="78.19" y1="90.65" x2="78.19" y2="23.48"/><line class="cls-3" x1="96.3" y1="80.2" x2="96.3" y2="13.02"/><line class="cls-3" x1="135.44" y1="195.14" x2="135.44" y2="127.96"/><line class="cls-3" x1="33.43" y1="203.67" x2="52.96" y2="214.94"/><line class="cls-3" x1="192.49" y1="128.99" x2="192.49" y2="61.81"/><line class="cls-3" x1="136.33" y1="101.54" x2="136.33" y2="34.37"/><line class="cls-3" x1="225.28" y1="217.56" x2="202.88" y2="230.5"/><line class="cls-3" x1="182.66" y1="293.36" x2="163.12" y2="282.08"/><line class="cls-3" x1="40.63" y1="265.86" x2="60.16" y2="254.59"/><line class="cls-3" x1="135.44" y1="288.19" x2="135.44" y2="199.37"/><line class="cls-3" x1="96.3" y1="98.06" x2="96.3" y2="95.03"/><polyline class="cls-2" points="29.55 135.41 90.18 170.41 103.89 145.52"/><path class="cls-2" d="M74.88,135.14l-2.44-1.41,29.41-17c1-.35,7.1-2.45,13.09-1.62"/><polyline class="cls-2" points="91.03 99.92 121.22 117.35 120.05 119.48"/><path class="cls-2" d="M128,165.83l-1.18-.68,22.92-41.59c2-3.43,3.05-6.07,3.05-8.36"/><line class="cls-2" x1="90.18" y1="173.23" x2="90.18" y2="170.41"/><line class="cls-2" x1="135.44" y1="199.37" x2="135.44" y2="196.54"/><line class="cls-2" x1="91.55" y1="171.21" x2="135.44" y2="196.54"/><line class="cls-2" x1="135.44" y1="196.54" x2="189.61" y2="165.27"/><path class="cls-2" d="M101.85,119.57c1-.35,7.1-2.45,13.09-1.62v-2.82L89.81,100.62,29.55,135.41v2.82l60.62,35,13.71-24.89v-2.82l-5.52,3.19L74.89,135.14Z"/><path class="cls-2" d="M114.94,116.54l5.1,2.94L91.55,171.21V174l43.89,25.34,54.17-31.28c.67-.38,7.71-4.55,12-10.88a17.12,17.12,0,0,0,3.29-9.58v-2.82c0-4.66-2.39-9.92-9.5-15.28A50.38,50.38,0,0,0,168,119.05a47.72,47.72,0,0,0-14.74,1.32l-15.2,27.76v2.82l11.73-6.77c8.77-4.69,17.57.41,17.94.63l.08,0c2.8,1.46,4.16,3,4.65,4.53-.83,2.79-3.76,5-4.21,5.29l-29.76,17.18-10.44-6,21.74-39.45c2-3.43,3.05-6.07,3.05-8.36V115.2c0-5.26-5.49-8.71-17.46-15.62-7.28-4.21-17.21-5.49-28.72-3.79a75.1,75.1,0,0,0-15.08,3.84l-.13.05-.42.24v1.41"/><path class="cls-2" d="M138.06,148.13l11.73-6.77c8.77-4.69,17.57.41,17.94.63l0,0,0,0c3.66,1.91,4.88,4,4.87,5.92a4.94,4.94,0,0,1-.22,1.43"/><path class="cls-2" d="M73.26,85.43c0,2.15,1.42,4.3,4.25,5.93,5.67,3.27,14.89,3.27,20.55,0,2.83-1.64,4.25-3.78,4.25-5.93"/><path class="cls-2" d="M189.61,165.27c.67-.38,7.71-4.55,12-10.88a17.12,17.12,0,0,0,3.29-9.58"/><path class="cls-2" d="M77.51,94.18c5.67,3.27,14.89,3.27,20.55,0,2.83-1.64,4.25-3.78,4.25-5.93V85.43c0-2.15-1.42-4.3-4.25-5.93-5.67-3.27-14.89-3.27-20.55,0-2.83,1.64-4.25,3.78-4.25,5.93v2.82C73.26,90.39,74.68,92.54,77.51,94.18Z"/><line class="cls-2" x1="91.98" y1="170.44" x2="91.74" y2="170.4"/><path class="cls-2" d="M73.26,285.62c0,2.15,1.42,4.3,4.25,5.93,5.67,3.27,14.89,3.27,20.55,0a8.33,8.33,0,0,0,4-4.33"/><path class="cls-2" d="M85,277.39a18.92,18.92,0,0,0-7.49,2.3c-2.83,1.64-4.25,3.78-4.25,5.93v2.82c0,2.15,1.42,4.3,4.25,5.93,5.67,3.27,14.89,3.27,20.55,0,2.83-1.64,4.25-3.78,4.25-5.93v-1.06"/><path class="cls-2" d="M172.45,349.57c-.49-1.51-1.86-3.06-4.64-4.52l-.08,0c-.37-.22-9.17-5.31-17.94-.63l-14.38,8.31L128,366"/><path class="cls-2" d="M167.72,342.18c-.37-.22-9.17-5.31-17.94-.63l-14.38,8.31-8.54,15.49,11.62,6.71,29.76-17.18c.45-.32,3.37-2.51,4.21-5.3a5,5,0,0,0,.21-1.43c0-1.92-1.21-4-4.87-5.92Z"/><path class="cls-2" d="M74.88,335.33l27-15.57c1.23-.45,11.09-3.81,18.11,0l0,0"/><line class="cls-2" x1="91.58" y1="299.82" x2="91.45" y2="299.87"/><line class="cls-2" x1="135.44" y1="399.56" x2="135.44" y2="396.74"/><line class="cls-2" x1="135.4" y1="352.68" x2="135.4" y2="349.86"/><path class="cls-2" d="M164.75,319.15a47.56,47.56,0,0,0-12.29,1.62l-1.25.36a13.38,13.38,0,0,0,1.63-5.74"/><path class="cls-2" d="M115.93,295.25a69.25,69.25,0,0,0-9.27.74,75.1,75.1,0,0,0-15.08,3.84"/><path class="cls-2" d="M29.55,335.61l105.89,61.13,54.17-31.27c.67-.38,7.71-4.55,12-10.88a17.12,17.12,0,0,0,3.29-9.58"/><path class="cls-2" d="M91.45,299.87,29.55,335.61v2.82l105.89,61.14,54.17-31.28c.67-.38,7.71-4.55,12-10.88a17.12,17.12,0,0,0,3.29-9.58l-.07-1.41"/><path class="cls-2" d="M101.85,316.95c1.23-.45,11.09-3.81,18.11,0l1.25.67-14.66,26.61-8.17,4.72-25.93-15Z"/><path class="cls-2" d="M171.41,319.59a50.85,50.85,0,0,1,24,10.15c7.1,5.36,9.5,10.62,9.5,15.28v2.82"/><path class="cls-2" d="M152.46,320.78a8.64,8.64,0,0,0,.38-2.56V315.4c0-4.32-3.69-7.41-11.64-12.2"/><line class="cls-2" x1="0.25" y1="211.54" x2="5.13" y2="211.54"/><line class="cls-2" x1="216.44" y1="240.01" x2="218.87" y2="241.43"/><line class="cls-2" x1="218.87" y1="241.43" x2="218.92" y2="241.4"/><line class="cls-2" x1="164.75" y1="306.51" x2="218.88" y2="275.26"/><path class="cls-2" d="M218.87,258.34l0-16.93c.69-.4,7.73-4.56,12.07-10.89a17.11,17.11,0,0,0,3.29-9.58"/><path class="cls-2" d="M183,215.5a42,42,0,0,1,13.91-1.41A46.08,46.08,0,0,1,222,223.8a28,28,0,0,1,5.89,5.77l-.11.17c-4.15,6.15-11.27,10.24-11.35,10.28v16.92l2.43,1.42,0,0c.67-.38,7.71-4.55,12-10.88a17.11,17.11,0,0,0,3.29-9.58V220.94c0-4.66-2.39-9.92-9.5-15.28a50.38,50.38,0,0,0-27.45-10.49,47.55,47.55,0,0,0-14.75,1.33c-.4.89-.84,1.75-1.32,2.6v15.71"/><polygon class="cls-2" points="218.88 275.26 216.44 273.85 164.75 303.69 164.75 323.43 218.88 292.18 218.88 275.26"/><polyline class="cls-2" points="5.13 228.46 5.13 211.54 62.95 178.16"/><polygon class="cls-2" points="62.95 178.16 60.51 176.75 0.25 211.54 0.25 228.46 5.13 228.46 62.95 195.08 62.95 178.16"/><polyline class="cls-2" points="60.88 297.3 60.88 280.38 0.25 245.38"/><polygon class="cls-2" points="0.25 245.38 0.25 262.3 60.88 297.3 62.05 295.16 62.05 278.24 5.13 245.38 0.25 245.38"/><line class="cls-2" x1="60.87" y1="280.38" x2="62.05" y2="278.24"/><path class="cls-2" d="M181.24,199.11a41.43,41.43,0,0,1,15.69-1.95A46.16,46.16,0,0,1,222,206.88c5.89,4.44,8.84,9.14,8.84,14a15.58,15.58,0,0,1-2.95,8.65"/></g></g></g></g></svg>