<svg xmlns="http://www.w3.org/2000/svg" viewBox="0 0 264.81 201"><defs><style>.cls-1,.cls-2,.cls-4{fill:none;}.cls-1,.cls-2{stroke:#333;stroke-linecap:round;}.cls-2{stroke-linejoin:round;}.cls-3{fill:#333;}.cls-4{stroke:#f16723;}</style></defs><title>Asset 6</title><g id="Layer_2" data-name="Layer 2"><g id="front"><rect id="outline" class="cls-1" x="0.5" y="0.5" width="263.81" height="200" rx="7.2" ry="7.2"/><g id="small_graphic" data-name="small graphic"><g id="right_dude" data-name="right dude"><path class="cls-2" d="M217.4,33.22C214.66,21.74,199,14.27,185,37a60.73,60.73,0,0,0,6.22,1.5s1.41,15.17,2.44,17.36c0,0-41.25,17.64-20.48,38.8,0,0,.45,1.8-5.27,1.8,0,0,0,7.51,9.23,6.54"/><path class="cls-2" d="M217.1,105.52c3.27,1.37,6.63,2.35,8-.5.33-.73-.68-1.17-.68-1.17-6.14-2.87-1-6-1-6,48.9-21.52-11.27-41-11.27-41s2.21-9.91,3.89-13a14.68,14.68,0,0,0,1.51-4.26"/><path class="cls-2" d="M177.88,119.06c-1.47-22.66-.65-43.54-.65-43.54"/><path class="cls-2" d="M217.1,105.52s1.19,22.9,4,40.81H188.19"/><path class="cls-2" d="M193.69,146.32s-.71-15.43,0-33.65"/><circle class="cls-3" cx="198.23" cy="32.95" r="1.48"/><path class="cls-2" d="M192.42,49s14.13,3.53,16.66-12.46"/><path class="cls-2" d="M214.9,36c3.69-1.25,6,2.93,2.65,3.59a9.18,9.18,0,0,1-3.43-.14"/><polyline class="cls-2" points="216.65 35.76 209.1 31.4 210.38 29.17 225.22 37.74 223.94 39.97 218.87 37.04"/></g><g id="left_dude" data-name="left dude"><path class="cls-2" d="M48.43,96.19c9.1,12.2-8,11.84-9.49,5.32-.32-1.36.68-1.16.68-1.16,5.81.27,2.9-2.47,2.9-2.47C-9.1,75.16,54.1,58.18,54.1,58.18S51.38,47,49.9,43.82C44.17,31.41,67.65,9.93,79,42.53a22.51,22.51,0,0,1-3.86.9S74,54.49,72.92,56.68c0,0,40.58,16.78,19.81,37.94,0,0-.46,1.8,5.27,1.8,0,0-.35,7.58-9.54,6.61"/><polyline class="cls-2" points="45.92 105.98 39.23 112.67 36.37 109.81 41.49 104.69"/><polyline class="cls-2" points="49.11 97.07 53.51 92.68 56.37 95.53 50.93 100.97"/><path class="cls-2" d="M87.69,119.29c1-17.08,1-28.8,1-28.8"/><path class="cls-2" d="M48.57,105.62s-.93,22.8-3.69,40.71H85.39c.07-.59.09-.76.15-1.35"/><path class="cls-2" d="M68.33,146.33a115.77,115.77,0,0,0,4-33.66"/><path class="cls-2" d="M63.3,95.39l-3.54,3.54L48.7,87.87S54.14,84.83,63.3,95.39Z"/><circle class="cls-3" cx="70.14" cy="38.01" r="1.48"/><path class="cls-2" d="M74.17,50.84s-9.62-.05-12.81-8"/></g><g id="B"><line class="cls-4" x1="164.56" y1="138.02" x2="164.56" y2="138.02"/><path class="cls-4" d="M156.72,142.54a10.51,10.51,0,0,0-3.56,1.16l-7.45,4.3V133.67l7.45-4.31c5.57-3,11.16.26,11.4.4l0,0h0c2.33,1.22,3.09,2.54,3.09,3.76,0,2.19-2.47,4-2.81,4.28l-.28.16-.05,0-7.84,4.52L146,148.74,144.6,148l-6-3.47,5.42-9.84q4.57-8.29,9.14-16.58c1.28-2.18,1.94-3.86,1.94-5.31"/><path class="cls-4" d="M116.16,148.33l1.66,1,26.23,15.14,34.39-19.86h0a26.2,26.2,0,0,0,7.65-6.91,10.88,10.88,0,0,0,2.09-6.09"/><path class="cls-4" d="M188.05,147.58a9.4,9.4,0,0,0,.16-1.69V131.56c0-3-1.52-6.3-6-9.7a32,32,0,0,0-17.43-6.67,30.88,30.88,0,0,0-9.37.84l-.27.49v-3.77c0-3.35-3.48-5.54-11.09-9.93-4.63-2.67-10.94-3.51-18.25-2.41-1,.15-1.89.31-2.76.5a44.43,44.43,0,0,0-6.82,1.94l-.08,0-.27.15L135,114.11,127.94,127,124,134.09l-7.85,14.24v14.33l1.66,1,26.23,15.14,34.39-19.85,0,0a26,26,0,0,0,7.65-6.91,11.92,11.92,0,0,0,1.93-4.4"/><path class="cls-4" d="M124,134.1V132l-3.5,2-4.07-2.35,6.28-3.62a20.83,20.83,0,0,1,5.23-1.1"/><polyline class="cls-4" points="131.02 121.36 131.02 112.7 115.06 103.48 76.77 125.59 76.77 139.92 86.25 145.39 115.29 162.16 116.17 160.57"/><polyline class="cls-4" points="76.77 125.59 115.29 147.82 124 132.01"/><line class="cls-4" x1="115.29" y1="162.16" x2="115.29" y2="147.83"/><path class="cls-4" d="M116.44,131.69,104,124.52l18.69-10.79a19.22,19.22,0,0,1,8.31-1"/><path class="cls-4" d="M144.59,147.94l1.12-2"/><path class="cls-4" d="M155.1,116.52c-8.43,15.41-8.91,16.28-9.39,17.15"/><line class="cls-4" x1="115.83" y1="103.93" x2="115.83" y2="103.03"/><path class="cls-4" d="M123,93.83c0-1.37-.9-2.73-2.7-3.77a14.45,14.45,0,0,0-13.06,0c-1.8,1-2.7,2.4-2.7,3.77"/><path class="cls-4" d="M104.54,93.83c0,1.36.9,2.73,2.7,3.77a14.45,14.45,0,0,0,13.06,0"/><path class="cls-4" d="M104.54,108.16a3.26,3.26,0,0,0,.26,1.25"/><line class="cls-4" x1="123" y1="93.83" x2="123" y2="100.91"/><line class="cls-4" x1="104.54" y1="108.16" x2="104.54" y2="93.83"/><path class="cls-4" d="M120.3,97.6c1.8-1,2.7-2.41,2.7-3.77"/><line class="cls-4" x1="144.05" y1="178.76" x2="144.05" y2="164.43"/></g></g></g></g></svg>