<svg xmlns="http://www.w3.org/2000/svg" viewBox="0 0 20.33 356"><defs><style>.cls-1,.cls-2{fill:none;}.cls-1{stroke:#333;stroke-linecap:round;stroke-width:0.5px;stroke-dasharray:2.5 2.5;}.cls-2{stroke:#f16723;}</style></defs><title>back grapic (3)</title><g id="Layer_2" data-name="Layer 2"><g id="back"><g id="back_grapic" data-name="back grapic"><g id="line"><line class="cls-1" x1="10.15" y1="215.73" x2="10.15" y2="72.04"/><line class="cls-1" x1="10.16" y1="340.1" x2="10.16" y2="220.17"/></g><g id="nut"><line class="cls-2" x1="11.82" y1="342.83" x2="11.82" y2="355.46"/><line class="cls-2" x1="13.35" y1="342.6" x2="13.35" y2="355.22"/><line class="cls-2" x1="4.02" y1="341.63" x2="4.02" y2="354.25"/><line class="cls-2" x1="2.9" y1="340.98" x2="2.9" y2="353.6"/><line class="cls-2" x1="19.06" y1="339.3" x2="19.06" y2="351.92"/><path class="cls-2" d="M15,337.45c0-1.09-.59-1.5-1.41-2a6.56,6.56,0,0,0-4.68-.72c-1.29.2-3.56.94-3.56,2.69,0,2.28,3.19,2.79,4.82,2.79S15,339.73,15,337.45Z"/><path class="cls-2" d="M19.53,338.66c0,.35-.19.49-.47.64l-5.71,3.3a2.15,2.15,0,0,1-1.53.23L4,341.63c-.48-.08-.87-.13-1.12-.65q-1-2.25-2.09-4.51"/><path class="cls-2" d="M4,354.25c-.48-.08-.87-.13-1.12-.65q-1-2.25-2.09-4.5V336.47a.56.56,0,0,1-.05-.23c0-.35.19-.49.46-.65,1.9-1.09,3.8-2.2,5.69-3.3a2.18,2.18,0,0,1,1.54-.23l7.82,1.21c.48.07.87.12,1.11.64l2.1,4.51a.6.6,0,0,1,.05.24v12.61c0,.36-.19.49-.47.65l-5.71,3.3a2.2,2.2,0,0,1-1.53.24Z"/></g><g id="washer"><path class="cls-2" d="M19.83,213c0,2.18-2.06,3.66-3.73,4.4a13.78,13.78,0,0,1-5.92,1.18,13.81,13.81,0,0,1-5.94-1.18C2.58,216.67.51,215.19.51,213"/><path class="cls-2" d="M14.81,213.81a2.86,2.86,0,0,0-1.22-1.19c-2.09-1.2-6.81-1.4-8.07,1.22"/><path class="cls-2" d="M13.59,211.05a6.56,6.56,0,0,0-4.68-.72c-1.29.2-3.57.94-3.57,2.68,0,2.11,2.92,2.71,4.44,2.79s4.22-.34,5-2A1.64,1.64,0,0,0,15,213C15,211.93,14.41,211.51,13.59,211.05Z"/><path class="cls-2" d="M17,209.07c1.64,1,2.83,1.78,2.83,3.94v1.58c0,2.18-2.06,3.66-3.73,4.41a14.07,14.07,0,0,1-5.92,1.17A14.1,14.1,0,0,1,4.24,219c-1.66-.75-3.73-2.23-3.73-4.41V213c0-3.49,4.56-5,7.13-5.38C11.05,207.1,13.91,207.28,17,209.07Z"/></g><g id="bolt"><path class="cls-2" d="M15,14.13V69.25c0,2.28-3.2,2.79-4.83,2.79s-4.83-.51-4.83-2.79V14.14"/><path class="cls-2" d="M17,2.2C13.9.41,11,.23,7.63.76,5.05,1.17.5,2.66.5,6.15V9.3c0,2.61,2.87,4.18,4.85,4.84a14.31,14.31,0,0,0,9.64,0c2-.66,4.83-2.23,4.83-4.83V6.15C19.82,4,18.63,3.15,17,2.2Z"/><path class="cls-2" d="M.5,6.15c0,2.17,2.07,3.65,3.72,4.4a14,14,0,0,0,5.94,1.17,13.93,13.93,0,0,0,5.93-1.17c1.66-.75,3.73-2.23,3.73-4.4"/></g></g></g></g></svg>